<mxfile host="drawio-plugin" modified="2022-12-26T20:18:08.092Z" agent="5.0 (X11; Linux x86_64) AppleWebKit/537.36 (KHTML, like Gecko) Chrome/104.0.5112.102 Safari/537.36" etag="4GbHsaCkifzuRKApL_IX" version="20.5.3" type="embed"><diagram name="Mundis Architecture" id="eWdeT5AcJQXGYYXO-Hpa"><mxGraphModel dx="1016" dy="1243" grid="0" gridSize="10" guides="1" tooltips="1" connect="1" arrows="1" fold="1" page="0" pageScale="1" pageWidth="850" pageHeight="1100" math="0" shadow="0"><root><mxCell id="0"/><mxCell id="1" parent="0"/><mxCell id="_RsEXBhHLz2z6lFNZUiC-2" style="edgeStyle=none;rounded=0;jumpSize=6;orthogonalLoop=1;jettySize=auto;html=1;startArrow=none;startFill=0;endArrow=classic;endFill=1;strokeWidth=2;entryX=0.5;entryY=0;entryDx=0;entryDy=0;exitX=0.5;exitY=1;exitDx=0;exitDy=0;" parent="1" source="_RsEXBhHLz2z6lFNZUiC-3" target="_RsEXBhHLz2z6lFNZUiC-42" edge="1"><mxGeometry relative="1" as="geometry"/></mxCell><mxCell id="_RsEXBhHLz2z6lFNZUiC-3" value="IN" style="rounded=1;whiteSpace=wrap;html=1;" parent="1" vertex="1"><mxGeometry x="482" y="162" width="40" height="40" as="geometry"/></mxCell><mxCell id="_RsEXBhHLz2z6lFNZUiC-4" style="edgeStyle=none;rounded=0;jumpSize=6;orthogonalLoop=1;jettySize=auto;html=1;entryX=0.5;entryY=0;entryDx=0;entryDy=0;strokeWidth=1;endArrow=none;endFill=0;dashed=1;" parent="1" source="_RsEXBhHLz2z6lFNZUiC-7" target="_RsEXBhHLz2z6lFNZUiC-11" edge="1"><mxGeometry relative="1" as="geometry"/></mxCell><mxCell id="_RsEXBhHLz2z6lFNZUiC-5" style="edgeStyle=none;rounded=0;jumpSize=6;orthogonalLoop=1;jettySize=auto;html=1;entryX=0.5;entryY=0;entryDx=0;entryDy=0;strokeWidth=1;endArrow=none;endFill=0;dashed=1;" parent="1" source="_RsEXBhHLz2z6lFNZUiC-7" target="_RsEXBhHLz2z6lFNZUiC-3" edge="1"><mxGeometry relative="1" as="geometry"/></mxCell><mxCell id="_RsEXBhHLz2z6lFNZUiC-6" style="edgeStyle=none;rounded=0;jumpSize=6;orthogonalLoop=1;jettySize=auto;html=1;entryX=0.5;entryY=0;entryDx=0;entryDy=0;strokeWidth=1;endArrow=none;endFill=0;dashed=1;" parent="1" source="_RsEXBhHLz2z6lFNZUiC-7" target="_RsEXBhHLz2z6lFNZUiC-9" edge="1"><mxGeometry relative="1" as="geometry"/></mxCell><mxCell id="_RsEXBhHLz2z6lFNZUiC-7" value="&lt;b&gt;NetworkReceiver&lt;br&gt;&lt;/b&gt;(maintains one TCP connection per worker)" style="rounded=1;whiteSpace=wrap;html=1;" parent="1" vertex="1"><mxGeometry x="497" y="42" width="170" height="60" as="geometry"/></mxCell><mxCell id="_RsEXBhHLz2z6lFNZUiC-8" style="edgeStyle=none;rounded=0;jumpSize=6;orthogonalLoop=1;jettySize=auto;html=1;startArrow=none;startFill=0;endArrow=classic;endFill=1;strokeWidth=2;entryX=0.5;entryY=0;entryDx=0;entryDy=0;exitX=0.5;exitY=1;exitDx=0;exitDy=0;" parent="1" source="_RsEXBhHLz2z6lFNZUiC-9" target="_RsEXBhHLz2z6lFNZUiC-42" edge="1"><mxGeometry relative="1" as="geometry"/></mxCell><mxCell id="_RsEXBhHLz2z6lFNZUiC-9" value="IN" style="rounded=1;whiteSpace=wrap;html=1;" parent="1" vertex="1"><mxGeometry x="642" y="162" width="40" height="40" as="geometry"/></mxCell><mxCell id="_RsEXBhHLz2z6lFNZUiC-10" style="edgeStyle=none;rounded=0;jumpSize=6;orthogonalLoop=1;jettySize=auto;html=1;startArrow=none;startFill=0;endArrow=classic;endFill=1;strokeWidth=2;entryX=0.5;entryY=0;entryDx=0;entryDy=0;exitX=0.5;exitY=1;exitDx=0;exitDy=0;" parent="1" source="_RsEXBhHLz2z6lFNZUiC-11" target="_RsEXBhHLz2z6lFNZUiC-42" edge="1"><mxGeometry relative="1" as="geometry"/></mxCell><mxCell id="_RsEXBhHLz2z6lFNZUiC-11" value="IN" style="rounded=1;whiteSpace=wrap;html=1;" parent="1" vertex="1"><mxGeometry x="542" y="162" width="40" height="40" as="geometry"/></mxCell><mxCell id="_RsEXBhHLz2z6lFNZUiC-12" value="" style="endArrow=none;dashed=1;html=1;rounded=0;edgeStyle=orthogonalEdgeStyle;jumpSize=6;strokeWidth=2;" parent="1" edge="1"><mxGeometry width="50" height="50" relative="1" as="geometry"><mxPoint x="602" y="181.99999999999977" as="sourcePoint"/><mxPoint x="622" y="181.99999999999977" as="targetPoint"/></mxGeometry></mxCell><mxCell id="_RsEXBhHLz2z6lFNZUiC-13" value="" style="rhombus;whiteSpace=wrap;html=1;strokeColor=#000000;fillColor=#000000;align=center;" parent="1" vertex="1"><mxGeometry x="462" y="162" width="10" height="10" as="geometry"/></mxCell><mxCell id="_RsEXBhHLz2z6lFNZUiC-17" style="edgeStyle=none;rounded=0;jumpSize=6;orthogonalLoop=1;jettySize=auto;html=1;strokeWidth=1;endArrow=none;endFill=0;dashed=1;" parent="1" source="_RsEXBhHLz2z6lFNZUiC-20" edge="1"><mxGeometry relative="1" as="geometry"><mxPoint x="1261" y="159" as="targetPoint"/></mxGeometry></mxCell><mxCell id="_RsEXBhHLz2z6lFNZUiC-19" style="edgeStyle=none;rounded=0;jumpSize=6;orthogonalLoop=1;jettySize=auto;html=1;entryX=0.5;entryY=0;entryDx=0;entryDy=0;strokeWidth=1;endArrow=none;endFill=0;dashed=1;" parent="1" source="_RsEXBhHLz2z6lFNZUiC-20" edge="1"><mxGeometry relative="1" as="geometry"><mxPoint x="1453" y="162" as="targetPoint"/></mxGeometry></mxCell><mxCell id="_RsEXBhHLz2z6lFNZUiC-29" value="&lt;font style=&quot;&quot;&gt;&lt;span style=&quot;font-size: 16px;&quot;&gt;&lt;b&gt;WorkerReceiverHandler&lt;br&gt;&lt;/b&gt;&lt;/span&gt;Handle messages from our workers&lt;br&gt;&lt;/font&gt;" style="text;html=1;strokeColor=none;fillColor=none;align=center;verticalAlign=middle;whiteSpace=wrap;rounded=0;dashed=1;" parent="1" vertex="1"><mxGeometry x="477.5" y="-16" width="209" height="64" as="geometry"/></mxCell><mxCell id="_RsEXBhHLz2z6lFNZUiC-33" style="edgeStyle=none;rounded=0;jumpSize=6;orthogonalLoop=1;jettySize=auto;html=1;startArrow=none;startFill=0;endArrow=classic;endFill=1;strokeWidth=2;exitX=0;exitY=0.5;exitDx=0;exitDy=0;" parent="1" source="_RsEXBhHLz2z6lFNZUiC-40" target="_RsEXBhHLz2z6lFNZUiC-57" edge="1"><mxGeometry relative="1" as="geometry"/></mxCell><mxCell id="_RsEXBhHLz2z6lFNZUiC-34" style="edgeStyle=none;rounded=0;jumpSize=6;orthogonalLoop=1;jettySize=auto;html=1;startArrow=none;startFill=0;endArrow=classic;endFill=1;strokeWidth=2;entryX=1;entryY=0;entryDx=0;entryDy=0;exitX=0;exitY=0.5;exitDx=0;exitDy=0;" parent="1" source="_RsEXBhHLz2z6lFNZUiC-40" target="_RsEXBhHLz2z6lFNZUiC-56" edge="1"><mxGeometry relative="1" as="geometry"><mxPoint x="710" y="530" as="targetPoint"/></mxGeometry></mxCell><mxCell id="_RsEXBhHLz2z6lFNZUiC-35" style="edgeStyle=none;rounded=0;jumpSize=6;orthogonalLoop=1;jettySize=auto;html=1;entryX=1;entryY=0.25;entryDx=0;entryDy=0;startArrow=none;startFill=0;endArrow=classic;endFill=1;strokeWidth=2;exitX=0;exitY=0.5;exitDx=0;exitDy=0;" parent="1" source="_RsEXBhHLz2z6lFNZUiC-40" target="_RsEXBhHLz2z6lFNZUiC-58" edge="1"><mxGeometry relative="1" as="geometry"/></mxCell><mxCell id="_RsEXBhHLz2z6lFNZUiC-36" style="edgeStyle=none;rounded=0;jumpSize=6;orthogonalLoop=1;jettySize=auto;html=1;exitX=0.5;exitY=1;exitDx=0;exitDy=0;entryX=0.5;entryY=0;entryDx=0;entryDy=0;startArrow=classic;startFill=1;endArrow=classic;endFill=1;strokeWidth=2;" parent="1" source="_RsEXBhHLz2z6lFNZUiC-40" target="_RsEXBhHLz2z6lFNZUiC-48" edge="1"><mxGeometry relative="1" as="geometry"><Array as="points"><mxPoint x="880" y="630"/></Array></mxGeometry></mxCell><mxCell id="_RsEXBhHLz2z6lFNZUiC-37" style="edgeStyle=none;rounded=0;jumpSize=6;orthogonalLoop=1;jettySize=auto;html=1;entryX=1;entryY=0;entryDx=0;entryDy=0;startArrow=none;startFill=0;endArrow=classic;endFill=1;strokeWidth=2;exitX=0.25;exitY=1;exitDx=0;exitDy=0;" parent="1" source="_RsEXBhHLz2z6lFNZUiC-40" target="_RsEXBhHLz2z6lFNZUiC-54" edge="1"><mxGeometry relative="1" as="geometry"/></mxCell><mxCell id="_RsEXBhHLz2z6lFNZUiC-38" style="edgeStyle=none;rounded=0;jumpSize=6;orthogonalLoop=1;jettySize=auto;html=1;entryX=0.25;entryY=0;entryDx=0;entryDy=0;startArrow=classic;startFill=1;endArrow=classic;endFill=1;strokeWidth=2;exitX=0.75;exitY=1;exitDx=0;exitDy=0;" parent="1" source="_RsEXBhHLz2z6lFNZUiC-40" target="_RsEXBhHLz2z6lFNZUiC-46" edge="1"><mxGeometry relative="1" as="geometry"/></mxCell><mxCell id="_RsEXBhHLz2z6lFNZUiC-39" style="edgeStyle=none;rounded=0;jumpSize=6;orthogonalLoop=1;jettySize=auto;html=1;entryX=0.5;entryY=0;entryDx=0;entryDy=0;startArrow=none;startFill=0;endArrow=classic;endFill=1;strokeWidth=2;exitX=1;exitY=1;exitDx=0;exitDy=0;" parent="1" source="_RsEXBhHLz2z6lFNZUiC-40" target="_RsEXBhHLz2z6lFNZUiC-47" edge="1"><mxGeometry relative="1" as="geometry"/></mxCell><mxCell id="_RsEXBhHLz2z6lFNZUiC-40" value="&lt;b&gt;PrimaryCore&lt;br&gt;&lt;/b&gt;receives and handles headers, votes, and certificates from other primaries" style="rounded=1;whiteSpace=wrap;html=1;" parent="1" vertex="1"><mxGeometry x="767" y="420" width="173" height="90" as="geometry"/></mxCell><mxCell id="_RsEXBhHLz2z6lFNZUiC-41" value="&lt;b&gt;Garbage Collector&lt;br&gt;&lt;/b&gt;Keeps track of the latest consensus round and allows other tasks to clean up their their internal state" style="rounded=1;whiteSpace=wrap;html=1;" parent="1" vertex="1"><mxGeometry x="617" y="900" width="163" height="85" as="geometry"/></mxCell><mxCell id="_RsEXBhHLz2z6lFNZUiC-42" value="&lt;b&gt;Payload Receiver&lt;br&gt;&lt;/b&gt;(recevies batches' digests of other authorities and stores them. These are only needed to verify incoming headers (ie. make sure we have their payload))" style="rounded=1;whiteSpace=wrap;html=1;" parent="1" vertex="1"><mxGeometry x="462" y="272" width="240" height="90" as="geometry"/></mxCell><mxCell id="_RsEXBhHLz2z6lFNZUiC-43" style="edgeStyle=none;rounded=0;jumpSize=6;orthogonalLoop=1;jettySize=auto;html=1;startArrow=none;startFill=0;endArrow=classic;endFill=1;strokeWidth=2;exitX=0.5;exitY=1;exitDx=0;exitDy=0;" parent="1" source="_RsEXBhHLz2z6lFNZUiC-46" target="_RsEXBhHLz2z6lFNZUiC-69" edge="1"><mxGeometry relative="1" as="geometry"/></mxCell><mxCell id="_RsEXBhHLz2z6lFNZUiC-44" style="edgeStyle=none;rounded=0;jumpSize=6;orthogonalLoop=1;jettySize=auto;html=1;startArrow=none;startFill=0;endArrow=classic;endFill=1;strokeWidth=2;exitX=0.5;exitY=1;exitDx=0;exitDy=0;" parent="1" source="_RsEXBhHLz2z6lFNZUiC-46" target="_RsEXBhHLz2z6lFNZUiC-68" edge="1"><mxGeometry relative="1" as="geometry"/></mxCell><mxCell id="_RsEXBhHLz2z6lFNZUiC-45" style="edgeStyle=none;rounded=0;jumpSize=6;orthogonalLoop=1;jettySize=auto;html=1;startArrow=none;startFill=0;endArrow=classic;endFill=1;strokeWidth=2;exitX=0.5;exitY=1;exitDx=0;exitDy=0;" parent="1" source="_RsEXBhHLz2z6lFNZUiC-46" target="_RsEXBhHLz2z6lFNZUiC-67" edge="1"><mxGeometry relative="1" as="geometry"/></mxCell><mxCell id="_RsEXBhHLz2z6lFNZUiC-46" value="&lt;b&gt;Header Waiter&lt;br&gt;&lt;/b&gt;Waits for missing parent certificates and batches' digests" style="rounded=1;whiteSpace=wrap;html=1;" parent="1" vertex="1"><mxGeometry x="964" y="697" width="136" height="93" as="geometry"/></mxCell><mxCell id="_RsEXBhHLz2z6lFNZUiC-47" value="&lt;b&gt;Certificate Waiter&lt;br&gt;&lt;/b&gt;Waits to receive all the ancestors of a certificate before looping it back to the core" style="rounded=1;whiteSpace=wrap;html=1;" parent="1" vertex="1"><mxGeometry x="1318" y="715" width="171" height="83" as="geometry"/></mxCell><mxCell id="_RsEXBhHLz2z6lFNZUiC-48" value="&lt;b&gt;Proposer&lt;br&gt;&lt;/b&gt;creates new headers and sends them to the core for broadcasting and further processing" style="rounded=1;whiteSpace=wrap;html=1;" parent="1" vertex="1"><mxGeometry x="799" y="695" width="141" height="95" as="geometry"/></mxCell><mxCell id="_RsEXBhHLz2z6lFNZUiC-49" style="edgeStyle=none;rounded=0;jumpSize=6;orthogonalLoop=1;jettySize=auto;html=1;endArrow=classic;endFill=1;strokeWidth=2;startArrow=none;startFill=0;exitX=1;exitY=0.5;exitDx=0;exitDy=0;" parent="1" source="_RsEXBhHLz2z6lFNZUiC-52" target="_RsEXBhHLz2z6lFNZUiC-63" edge="1"><mxGeometry relative="1" as="geometry"/></mxCell><mxCell id="_RsEXBhHLz2z6lFNZUiC-50" style="edgeStyle=none;rounded=0;jumpSize=6;orthogonalLoop=1;jettySize=auto;html=1;endArrow=classic;endFill=1;strokeWidth=2;startArrow=none;startFill=0;exitX=1;exitY=0.5;exitDx=0;exitDy=0;" parent="1" source="_RsEXBhHLz2z6lFNZUiC-52" target="_RsEXBhHLz2z6lFNZUiC-64" edge="1"><mxGeometry relative="1" as="geometry"/></mxCell><mxCell id="_RsEXBhHLz2z6lFNZUiC-51" style="edgeStyle=none;rounded=0;jumpSize=6;orthogonalLoop=1;jettySize=auto;html=1;endArrow=classic;endFill=1;strokeWidth=2;startArrow=none;startFill=0;exitX=1;exitY=0.5;exitDx=0;exitDy=0;" parent="1" source="_RsEXBhHLz2z6lFNZUiC-52" target="_RsEXBhHLz2z6lFNZUiC-62" edge="1"><mxGeometry relative="1" as="geometry"/></mxCell><mxCell id="_RsEXBhHLz2z6lFNZUiC-52" value="&lt;b&gt;Helper&lt;br&gt;&lt;/b&gt;replies to certificate requests from other primaries" style="rounded=1;whiteSpace=wrap;html=1;" parent="1" vertex="1"><mxGeometry x="980" y="427" width="140" height="83" as="geometry"/></mxCell><mxCell id="_RsEXBhHLz2z6lFNZUiC-53" style="edgeStyle=none;rounded=0;jumpSize=6;orthogonalLoop=1;jettySize=auto;html=1;startArrow=none;startFill=0;endArrow=classic;endFill=1;strokeWidth=2;" parent="1" source="_RsEXBhHLz2z6lFNZUiC-54" target="_RsEXBhHLz2z6lFNZUiC-41" edge="1"><mxGeometry relative="1" as="geometry"/></mxCell><mxCell id="_RsEXBhHLz2z6lFNZUiC-54" value="&lt;b&gt;Consensus&lt;br&gt;&lt;/b&gt;(orders certificates)" style="rounded=1;whiteSpace=wrap;html=1;" parent="1" vertex="1"><mxGeometry x="620" y="715" width="120" height="60" as="geometry"/></mxCell><mxCell id="_RsEXBhHLz2z6lFNZUiC-55" value="Reliable Sender&lt;br&gt;(to other primaries)" style="rounded=0;whiteSpace=wrap;html=1;fillColor=none;verticalAlign=bottom;dashed=1;" parent="1" vertex="1"><mxGeometry x="488" y="520" width="240" height="100" as="geometry"/></mxCell><mxCell id="_RsEXBhHLz2z6lFNZUiC-56" value="OUT" style="rounded=1;whiteSpace=wrap;html=1;" parent="1" vertex="1"><mxGeometry x="508" y="540" width="40" height="40" as="geometry"/></mxCell><mxCell id="_RsEXBhHLz2z6lFNZUiC-57" value="OUT" style="rounded=1;whiteSpace=wrap;html=1;" parent="1" vertex="1"><mxGeometry x="668" y="540" width="40" height="40" as="geometry"/></mxCell><mxCell id="_RsEXBhHLz2z6lFNZUiC-58" value="OUT" style="rounded=1;whiteSpace=wrap;html=1;" parent="1" vertex="1"><mxGeometry x="568" y="540" width="40" height="40" as="geometry"/></mxCell><mxCell id="_RsEXBhHLz2z6lFNZUiC-59" value="" style="endArrow=none;dashed=1;html=1;rounded=0;edgeStyle=orthogonalEdgeStyle;jumpSize=6;strokeWidth=2;" parent="1" edge="1"><mxGeometry width="50" height="50" relative="1" as="geometry"><mxPoint x="628" y="559.9999999999998" as="sourcePoint"/><mxPoint x="648" y="559.9999999999998" as="targetPoint"/></mxGeometry></mxCell><mxCell id="_RsEXBhHLz2z6lFNZUiC-61" value="Simple Sender&lt;br&gt;(to other primaries)" style="rounded=0;whiteSpace=wrap;html=1;fillColor=none;verticalAlign=bottom;dashed=1;" parent="1" vertex="1"><mxGeometry x="1163" y="486" width="240" height="100" as="geometry"/></mxCell><mxCell id="_RsEXBhHLz2z6lFNZUiC-62" value="OUT" style="rounded=1;whiteSpace=wrap;html=1;strokeWidth=1;" parent="1" vertex="1"><mxGeometry x="1180" y="511" width="40" height="40" as="geometry"/></mxCell><mxCell id="_RsEXBhHLz2z6lFNZUiC-63" value="OUT" style="rounded=1;whiteSpace=wrap;html=1;" parent="1" vertex="1"><mxGeometry x="1340" y="511" width="40" height="40" as="geometry"/></mxCell><mxCell id="_RsEXBhHLz2z6lFNZUiC-64" value="OUT" style="rounded=1;whiteSpace=wrap;html=1;strokeWidth=1;" parent="1" vertex="1"><mxGeometry x="1240" y="511" width="40" height="40" as="geometry"/></mxCell><mxCell id="_RsEXBhHLz2z6lFNZUiC-65" value="" style="rhombus;whiteSpace=wrap;html=1;strokeColor=#000000;fillColor=#000000;align=center;strokeWidth=1;" parent="1" vertex="1"><mxGeometry x="1165" y="571" width="10" height="10" as="geometry"/></mxCell><mxCell id="_RsEXBhHLz2z6lFNZUiC-66" value="Simple Sender&lt;br&gt;(to other primaries or our workers)" style="rounded=0;whiteSpace=wrap;html=1;fillColor=none;verticalAlign=bottom;dashed=1;" parent="1" vertex="1"><mxGeometry x="920" y="850" width="240" height="100" as="geometry"/></mxCell><mxCell id="_RsEXBhHLz2z6lFNZUiC-67" value="OUT" style="rounded=1;whiteSpace=wrap;html=1;" parent="1" vertex="1"><mxGeometry x="940" y="870" width="40" height="40" as="geometry"/></mxCell><mxCell id="_RsEXBhHLz2z6lFNZUiC-68" value="OUT" style="rounded=1;whiteSpace=wrap;html=1;" parent="1" vertex="1"><mxGeometry x="1100" y="870" width="40" height="40" as="geometry"/></mxCell><mxCell id="_RsEXBhHLz2z6lFNZUiC-69" value="OUT" style="rounded=1;whiteSpace=wrap;html=1;" parent="1" vertex="1"><mxGeometry x="1000" y="870" width="40" height="40" as="geometry"/></mxCell><mxCell id="_RsEXBhHLz2z6lFNZUiC-70" value="" style="rhombus;whiteSpace=wrap;html=1;strokeColor=#000000;fillColor=#000000;align=center;" parent="1" vertex="1"><mxGeometry x="928" y="919" width="10" height="10" as="geometry"/></mxCell><mxCell id="_RsEXBhHLz2z6lFNZUiC-82" value="&lt;b&gt;W&lt;/b&gt;" style="ellipse;shape=cloud;whiteSpace=wrap;html=1;strokeColor=#000000;fillColor=none;align=center;" parent="1" vertex="1"><mxGeometry x="756" y="868" width="30" height="30" as="geometry"/></mxCell><mxCell id="_RsEXBhHLz2z6lFNZUiC-83" value="&lt;b&gt;R&lt;/b&gt;" style="ellipse;shape=cloud;whiteSpace=wrap;html=1;strokeColor=#000000;fillColor=none;align=center;" parent="1" vertex="1"><mxGeometry x="750" y="394" width="30" height="30" as="geometry"/></mxCell><mxCell id="_RsEXBhHLz2z6lFNZUiC-84" value="&lt;b&gt;R&lt;/b&gt;" style="ellipse;shape=cloud;whiteSpace=wrap;html=1;strokeColor=#000000;fillColor=none;align=center;strokeWidth=1;" parent="1" vertex="1"><mxGeometry x="1077" y="784" width="30" height="30" as="geometry"/></mxCell><mxCell id="_RsEXBhHLz2z6lFNZUiC-89" value="" style="endArrow=none;dashed=1;html=1;rounded=0;edgeStyle=orthogonalEdgeStyle;jumpSize=6;strokeWidth=2;" parent="1" edge="1"><mxGeometry width="50" height="50" relative="1" as="geometry"><mxPoint x="1300" y="530.9999999999998" as="sourcePoint"/><mxPoint x="1320" y="530.9999999999998" as="targetPoint"/></mxGeometry></mxCell><mxCell id="_RsEXBhHLz2z6lFNZUiC-90" value="" style="endArrow=none;dashed=1;html=1;rounded=0;edgeStyle=orthogonalEdgeStyle;jumpSize=6;strokeWidth=2;" parent="1" edge="1"><mxGeometry width="50" height="50" relative="1" as="geometry"><mxPoint x="1060" y="889.9999999999998" as="sourcePoint"/><mxPoint x="1080" y="889.9999999999998" as="targetPoint"/></mxGeometry></mxCell><mxCell id="_RsEXBhHLz2z6lFNZUiC-91" value="" style="ellipse;whiteSpace=wrap;html=1;aspect=fixed;align=center;fillColor=#000000;" parent="1" vertex="1"><mxGeometry x="470" y="280" width="10" height="10" as="geometry"/></mxCell><mxCell id="_RsEXBhHLz2z6lFNZUiC-92" value="" style="ellipse;whiteSpace=wrap;html=1;aspect=fixed;align=center;fillColor=#000000;" parent="1" vertex="1"><mxGeometry x="985" y="436" width="10" height="10" as="geometry"/></mxCell><mxCell id="_RsEXBhHLz2z6lFNZUiC-93" value="" style="ellipse;whiteSpace=wrap;html=1;aspect=fixed;align=center;fillColor=#000000;" parent="1" vertex="1"><mxGeometry x="776" y="424" width="10" height="10" as="geometry"/></mxCell><mxCell id="_RsEXBhHLz2z6lFNZUiC-94" value="" style="ellipse;whiteSpace=wrap;html=1;aspect=fixed;align=center;fillColor=#000000;" parent="1" vertex="1"><mxGeometry x="972" y="701.75" width="10" height="10" as="geometry"/></mxCell><mxCell id="_RsEXBhHLz2z6lFNZUiC-95" value="" style="ellipse;whiteSpace=wrap;html=1;aspect=fixed;align=center;fillColor=#000000;" parent="1" vertex="1"><mxGeometry x="1323" y="721" width="10" height="10" as="geometry"/></mxCell><mxCell id="_RsEXBhHLz2z6lFNZUiC-97" value="" style="rounded=0;whiteSpace=wrap;html=1;strokeColor=#000000;fillColor=#000000;align=center;" parent="1" vertex="1"><mxGeometry x="790" y="424" width="10" height="10" as="geometry"/></mxCell><mxCell id="_RsEXBhHLz2z6lFNZUiC-98" value="" style="rounded=0;whiteSpace=wrap;html=1;strokeColor=#000000;fillColor=#000000;align=center;" parent="1" vertex="1"><mxGeometry x="667" y="736" width="10" height="10" as="geometry"/></mxCell><mxCell id="_RsEXBhHLz2z6lFNZUiC-119" value="Reliable Sender&lt;br&gt;(to other workers)" style="rounded=0;whiteSpace=wrap;html=1;fillColor=none;verticalAlign=bottom;dashed=1;" parent="1" vertex="1"><mxGeometry x="350" y="1650" width="240" height="100" as="geometry"/></mxCell><mxCell id="_RsEXBhHLz2z6lFNZUiC-120" value="Simple Sender&lt;br&gt;(to other workers)" style="rounded=0;whiteSpace=wrap;html=1;fillColor=none;verticalAlign=bottom;dashed=1;" parent="1" vertex="1"><mxGeometry x="70" y="1650" width="240" height="100" as="geometry"/></mxCell><mxCell id="_RsEXBhHLz2z6lFNZUiC-121" value="Simple Sender&lt;br&gt;(to other workers)" style="rounded=0;whiteSpace=wrap;html=1;fillColor=none;verticalAlign=bottom;dashed=1;" parent="1" vertex="1"><mxGeometry x="950" y="1650" width="240" height="100" as="geometry"/></mxCell><mxCell id="_RsEXBhHLz2z6lFNZUiC-122" value="Simple Sender&lt;br&gt;(to our primary)" style="rounded=0;whiteSpace=wrap;html=1;fillColor=none;verticalAlign=bottom;dashed=1;" parent="1" vertex="1"><mxGeometry x="850" y="1890" width="125" height="100" as="geometry"/></mxCell><mxCell id="_RsEXBhHLz2z6lFNZUiC-123" style="edgeStyle=none;rounded=0;jumpSize=6;orthogonalLoop=1;jettySize=auto;html=1;entryX=0.5;entryY=0;entryDx=0;entryDy=0;strokeWidth=2;exitX=0.25;exitY=1;exitDx=0;exitDy=0;" parent="1" source="_RsEXBhHLz2z6lFNZUiC-127" target="_RsEXBhHLz2z6lFNZUiC-178" edge="1"><mxGeometry relative="1" as="geometry"/></mxCell><mxCell id="_RsEXBhHLz2z6lFNZUiC-124" style="edgeStyle=none;rounded=0;jumpSize=6;orthogonalLoop=1;jettySize=auto;html=1;entryX=0.5;entryY=0;entryDx=0;entryDy=0;strokeWidth=2;exitX=0.25;exitY=1;exitDx=0;exitDy=0;" parent="1" source="_RsEXBhHLz2z6lFNZUiC-127" target="_RsEXBhHLz2z6lFNZUiC-179" edge="1"><mxGeometry relative="1" as="geometry"/></mxCell><mxCell id="_RsEXBhHLz2z6lFNZUiC-125" style="edgeStyle=none;rounded=0;jumpSize=6;orthogonalLoop=1;jettySize=auto;html=1;entryX=0.5;entryY=0;entryDx=0;entryDy=0;strokeWidth=2;exitX=0.25;exitY=1;exitDx=0;exitDy=0;" parent="1" source="_RsEXBhHLz2z6lFNZUiC-127" target="_RsEXBhHLz2z6lFNZUiC-177" edge="1"><mxGeometry relative="1" as="geometry"/></mxCell><mxCell id="_RsEXBhHLz2z6lFNZUiC-126" style="edgeStyle=none;rounded=0;jumpSize=6;orthogonalLoop=1;jettySize=auto;html=1;entryX=0.5;entryY=0;entryDx=0;entryDy=0;strokeWidth=2;exitX=0.75;exitY=1;exitDx=0;exitDy=0;" parent="1" source="_RsEXBhHLz2z6lFNZUiC-127" target="_RsEXBhHLz2z6lFNZUiC-129" edge="1"><mxGeometry relative="1" as="geometry"/></mxCell><mxCell id="_RsEXBhHLz2z6lFNZUiC-127" value="&lt;b&gt;Batch Maker&lt;br&gt;&lt;/b&gt;(assembles txs into batches)" style="rounded=1;whiteSpace=wrap;html=1;" parent="1" vertex="1"><mxGeometry x="530" y="1550" width="120" height="60" as="geometry"/></mxCell><mxCell id="_RsEXBhHLz2z6lFNZUiC-128" style="edgeStyle=none;rounded=0;jumpSize=6;orthogonalLoop=1;jettySize=auto;html=1;entryX=0.5;entryY=0;entryDx=0;entryDy=0;strokeWidth=2;" parent="1" source="_RsEXBhHLz2z6lFNZUiC-129" target="_RsEXBhHLz2z6lFNZUiC-131" edge="1"><mxGeometry relative="1" as="geometry"/></mxCell><mxCell id="_RsEXBhHLz2z6lFNZUiC-129" value="&lt;b&gt;QuorumWaiter&lt;/b&gt;&lt;br&gt;(waits for a quorum to acks our batch)" style="rounded=1;whiteSpace=wrap;html=1;" parent="1" vertex="1"><mxGeometry x="610" y="1670" width="130" height="60" as="geometry"/></mxCell><mxCell id="_RsEXBhHLz2z6lFNZUiC-130" style="edgeStyle=none;rounded=0;jumpSize=6;orthogonalLoop=1;jettySize=auto;html=1;strokeWidth=2;" parent="1" source="_RsEXBhHLz2z6lFNZUiC-131" target="_RsEXBhHLz2z6lFNZUiC-171" edge="1"><mxGeometry relative="1" as="geometry"/></mxCell><mxCell id="_RsEXBhHLz2z6lFNZUiC-131" value="&lt;b&gt;WorkerProcessor&lt;br&gt;&lt;/b&gt;(hashes and stores batches)" style="rounded=1;whiteSpace=wrap;html=1;" parent="1" vertex="1"><mxGeometry x="578" y="1790" width="152" height="58" as="geometry"/></mxCell><mxCell id="_RsEXBhHLz2z6lFNZUiC-132" style="edgeStyle=none;rounded=0;jumpSize=6;orthogonalLoop=1;jettySize=auto;html=1;strokeWidth=2;entryX=0.5;entryY=0;entryDx=0;entryDy=0;" parent="1" source="_RsEXBhHLz2z6lFNZUiC-133" target="_RsEXBhHLz2z6lFNZUiC-127" edge="1"><mxGeometry relative="1" as="geometry"/></mxCell><mxCell id="_RsEXBhHLz2z6lFNZUiC-133" value="IN" style="rounded=1;whiteSpace=wrap;html=1;" parent="1" vertex="1"><mxGeometry x="490" y="1450" width="40" height="40" as="geometry"/></mxCell><mxCell id="_RsEXBhHLz2z6lFNZUiC-134" style="edgeStyle=none;rounded=0;jumpSize=6;orthogonalLoop=1;jettySize=auto;html=1;exitX=0.5;exitY=1;exitDx=0;exitDy=0;entryX=0.5;entryY=0;entryDx=0;entryDy=0;strokeWidth=2;" parent="1" source="_RsEXBhHLz2z6lFNZUiC-137" target="_RsEXBhHLz2z6lFNZUiC-174" edge="1"><mxGeometry relative="1" as="geometry"/></mxCell><mxCell id="_RsEXBhHLz2z6lFNZUiC-135" style="edgeStyle=none;rounded=0;jumpSize=6;orthogonalLoop=1;jettySize=auto;html=1;entryX=0.5;entryY=0;entryDx=0;entryDy=0;strokeWidth=2;exitX=0.5;exitY=1;exitDx=0;exitDy=0;" parent="1" source="_RsEXBhHLz2z6lFNZUiC-137" target="_RsEXBhHLz2z6lFNZUiC-172" edge="1"><mxGeometry relative="1" as="geometry"/></mxCell><mxCell id="_RsEXBhHLz2z6lFNZUiC-136" style="edgeStyle=none;rounded=0;jumpSize=6;orthogonalLoop=1;jettySize=auto;html=1;entryX=0.5;entryY=0;entryDx=0;entryDy=0;strokeWidth=2;exitX=0.5;exitY=1;exitDx=0;exitDy=0;" parent="1" source="_RsEXBhHLz2z6lFNZUiC-137" target="_RsEXBhHLz2z6lFNZUiC-173" edge="1"><mxGeometry relative="1" as="geometry"/></mxCell><mxCell id="_RsEXBhHLz2z6lFNZUiC-137" value="&lt;b&gt;Helper&lt;br&gt;&lt;/b&gt;(replies to batch requests)" style="rounded=1;whiteSpace=wrap;html=1;" parent="1" vertex="1"><mxGeometry x="1010" y="1550" width="120" height="60" as="geometry"/></mxCell><mxCell id="_RsEXBhHLz2z6lFNZUiC-138" value="&lt;b&gt;Processor&lt;br&gt;&lt;/b&gt;(hashes and stores batches)" style="rounded=1;whiteSpace=wrap;html=1;" parent="1" vertex="1"><mxGeometry x="838" y="1550" width="132" height="60" as="geometry"/></mxCell><mxCell id="_RsEXBhHLz2z6lFNZUiC-139" style="rounded=0;jumpSize=6;orthogonalLoop=1;jettySize=auto;html=1;entryX=0.5;entryY=0;entryDx=0;entryDy=0;strokeWidth=2;exitX=0.5;exitY=1;exitDx=0;exitDy=0;" parent="1" source="_RsEXBhHLz2z6lFNZUiC-142" target="_RsEXBhHLz2z6lFNZUiC-181" edge="1"><mxGeometry relative="1" as="geometry"/></mxCell><mxCell id="_RsEXBhHLz2z6lFNZUiC-140" style="edgeStyle=none;rounded=0;jumpSize=6;orthogonalLoop=1;jettySize=auto;html=1;entryX=0.5;entryY=0;entryDx=0;entryDy=0;strokeWidth=2;exitX=0.5;exitY=1;exitDx=0;exitDy=0;" parent="1" source="_RsEXBhHLz2z6lFNZUiC-142" target="_RsEXBhHLz2z6lFNZUiC-183" edge="1"><mxGeometry relative="1" as="geometry"/></mxCell><mxCell id="_RsEXBhHLz2z6lFNZUiC-141" style="edgeStyle=none;rounded=0;jumpSize=6;orthogonalLoop=1;jettySize=auto;html=1;entryX=0.5;entryY=0;entryDx=0;entryDy=0;strokeWidth=2;exitX=0.5;exitY=1;exitDx=0;exitDy=0;" parent="1" source="_RsEXBhHLz2z6lFNZUiC-142" target="_RsEXBhHLz2z6lFNZUiC-182" edge="1"><mxGeometry relative="1" as="geometry"/></mxCell><mxCell id="_RsEXBhHLz2z6lFNZUiC-142" value="&lt;b&gt;Synchronizer&lt;br&gt;&lt;/b&gt;(requests missing batches)" style="rounded=1;whiteSpace=wrap;html=1;" parent="1" vertex="1"><mxGeometry x="130" y="1550" width="120" height="60" as="geometry"/></mxCell><mxCell id="_RsEXBhHLz2z6lFNZUiC-143" style="edgeStyle=none;rounded=0;jumpSize=6;orthogonalLoop=1;jettySize=auto;html=1;entryX=0.5;entryY=0;entryDx=0;entryDy=0;strokeWidth=1;endArrow=none;endFill=0;dashed=1;" parent="1" source="_RsEXBhHLz2z6lFNZUiC-146" target="_RsEXBhHLz2z6lFNZUiC-150" edge="1"><mxGeometry relative="1" as="geometry"/></mxCell><mxCell id="_RsEXBhHLz2z6lFNZUiC-144" style="edgeStyle=none;rounded=0;jumpSize=6;orthogonalLoop=1;jettySize=auto;html=1;entryX=0.5;entryY=0;entryDx=0;entryDy=0;strokeWidth=1;endArrow=none;endFill=0;dashed=1;" parent="1" source="_RsEXBhHLz2z6lFNZUiC-146" target="_RsEXBhHLz2z6lFNZUiC-133" edge="1"><mxGeometry relative="1" as="geometry"/></mxCell><mxCell id="_RsEXBhHLz2z6lFNZUiC-145" style="edgeStyle=none;rounded=0;jumpSize=6;orthogonalLoop=1;jettySize=auto;html=1;entryX=0.5;entryY=0;entryDx=0;entryDy=0;strokeWidth=1;endArrow=none;endFill=0;dashed=1;" parent="1" source="_RsEXBhHLz2z6lFNZUiC-146" target="_RsEXBhHLz2z6lFNZUiC-148" edge="1"><mxGeometry relative="1" as="geometry"/></mxCell><mxCell id="_RsEXBhHLz2z6lFNZUiC-146" value="&lt;b&gt;NetworkReceiver&lt;br&gt;&lt;/b&gt;(maintains one TCP connection per client)" style="rounded=1;whiteSpace=wrap;html=1;" parent="1" vertex="1"><mxGeometry x="530" y="1330" width="120" height="60" as="geometry"/></mxCell><mxCell id="_RsEXBhHLz2z6lFNZUiC-147" style="edgeStyle=none;rounded=0;jumpSize=6;orthogonalLoop=1;jettySize=auto;html=1;strokeWidth=2;entryX=0.5;entryY=0;entryDx=0;entryDy=0;" parent="1" source="_RsEXBhHLz2z6lFNZUiC-148" target="_RsEXBhHLz2z6lFNZUiC-127" edge="1"><mxGeometry relative="1" as="geometry"/></mxCell><mxCell id="_RsEXBhHLz2z6lFNZUiC-148" value="IN" style="rounded=1;whiteSpace=wrap;html=1;" parent="1" vertex="1"><mxGeometry x="650" y="1450" width="40" height="40" as="geometry"/></mxCell><mxCell id="_RsEXBhHLz2z6lFNZUiC-149" style="edgeStyle=none;rounded=0;jumpSize=6;orthogonalLoop=1;jettySize=auto;html=1;strokeWidth=2;entryX=0.5;entryY=0;entryDx=0;entryDy=0;" parent="1" source="_RsEXBhHLz2z6lFNZUiC-150" target="_RsEXBhHLz2z6lFNZUiC-127" edge="1"><mxGeometry relative="1" as="geometry"/></mxCell><mxCell id="_RsEXBhHLz2z6lFNZUiC-150" value="IN" style="rounded=1;whiteSpace=wrap;html=1;" parent="1" vertex="1"><mxGeometry x="550" y="1450" width="40" height="40" as="geometry"/></mxCell><mxCell id="_RsEXBhHLz2z6lFNZUiC-151" value="" style="endArrow=none;dashed=1;html=1;rounded=0;edgeStyle=orthogonalEdgeStyle;jumpSize=6;strokeWidth=2;" parent="1" edge="1"><mxGeometry width="50" height="50" relative="1" as="geometry"><mxPoint x="610" y="1470" as="sourcePoint"/><mxPoint x="630" y="1470" as="targetPoint"/></mxGeometry></mxCell><mxCell id="_RsEXBhHLz2z6lFNZUiC-152" style="edgeStyle=none;rounded=0;jumpSize=6;orthogonalLoop=1;jettySize=auto;html=1;entryX=0.75;entryY=0;entryDx=0;entryDy=0;strokeWidth=2;" parent="1" source="_RsEXBhHLz2z6lFNZUiC-154" target="_RsEXBhHLz2z6lFNZUiC-138" edge="1"><mxGeometry relative="1" as="geometry"/></mxCell><mxCell id="_RsEXBhHLz2z6lFNZUiC-153" style="edgeStyle=none;rounded=0;jumpSize=6;orthogonalLoop=1;jettySize=auto;html=1;strokeWidth=2;exitX=0.5;exitY=1;exitDx=0;exitDy=0;entryX=0.25;entryY=0;entryDx=0;entryDy=0;" parent="1" source="_RsEXBhHLz2z6lFNZUiC-154" target="_RsEXBhHLz2z6lFNZUiC-137" edge="1"><mxGeometry relative="1" as="geometry"/></mxCell><mxCell id="_RsEXBhHLz2z6lFNZUiC-154" value="IN" style="rounded=1;whiteSpace=wrap;html=1;" parent="1" vertex="1"><mxGeometry x="890" y="1450" width="40" height="40" as="geometry"/></mxCell><mxCell id="_RsEXBhHLz2z6lFNZUiC-155" style="edgeStyle=none;rounded=0;jumpSize=6;orthogonalLoop=1;jettySize=auto;html=1;entryX=0.5;entryY=0;entryDx=0;entryDy=0;strokeWidth=1;endArrow=none;endFill=0;dashed=1;" parent="1" source="_RsEXBhHLz2z6lFNZUiC-158" target="_RsEXBhHLz2z6lFNZUiC-164" edge="1"><mxGeometry relative="1" as="geometry"/></mxCell><mxCell id="_RsEXBhHLz2z6lFNZUiC-156" style="edgeStyle=none;rounded=0;jumpSize=6;orthogonalLoop=1;jettySize=auto;html=1;entryX=0.5;entryY=0;entryDx=0;entryDy=0;strokeWidth=1;endArrow=none;endFill=0;dashed=1;" parent="1" source="_RsEXBhHLz2z6lFNZUiC-158" target="_RsEXBhHLz2z6lFNZUiC-161" edge="1"><mxGeometry relative="1" as="geometry"/></mxCell><mxCell id="_RsEXBhHLz2z6lFNZUiC-157" style="edgeStyle=none;rounded=0;jumpSize=6;orthogonalLoop=1;jettySize=auto;html=1;entryX=0.5;entryY=0;entryDx=0;entryDy=0;strokeWidth=1;endArrow=none;endFill=0;dashed=1;" parent="1" source="_RsEXBhHLz2z6lFNZUiC-158" target="_RsEXBhHLz2z6lFNZUiC-154" edge="1"><mxGeometry relative="1" as="geometry"/></mxCell><mxCell id="_RsEXBhHLz2z6lFNZUiC-158" value="&lt;b&gt;NetworkReceiver&lt;br&gt;&lt;/b&gt;(maintains one TCP connection per client)" style="rounded=1;whiteSpace=wrap;html=1;" parent="1" vertex="1"><mxGeometry x="930" y="1330" width="120" height="60" as="geometry"/></mxCell><mxCell id="_RsEXBhHLz2z6lFNZUiC-159" style="edgeStyle=none;rounded=0;jumpSize=6;orthogonalLoop=1;jettySize=auto;html=1;strokeWidth=2;entryX=0.25;entryY=0;entryDx=0;entryDy=0;" parent="1" source="_RsEXBhHLz2z6lFNZUiC-161" target="_RsEXBhHLz2z6lFNZUiC-137" edge="1"><mxGeometry relative="1" as="geometry"/></mxCell><mxCell id="_RsEXBhHLz2z6lFNZUiC-160" style="edgeStyle=none;rounded=0;jumpSize=6;orthogonalLoop=1;jettySize=auto;html=1;strokeWidth=2;exitX=0.5;exitY=1;exitDx=0;exitDy=0;entryX=0.75;entryY=0;entryDx=0;entryDy=0;" parent="1" source="_RsEXBhHLz2z6lFNZUiC-161" target="_RsEXBhHLz2z6lFNZUiC-138" edge="1"><mxGeometry relative="1" as="geometry"/></mxCell><mxCell id="_RsEXBhHLz2z6lFNZUiC-161" value="IN" style="rounded=1;whiteSpace=wrap;html=1;" parent="1" vertex="1"><mxGeometry x="1050" y="1450" width="40" height="40" as="geometry"/></mxCell><mxCell id="_RsEXBhHLz2z6lFNZUiC-162" style="edgeStyle=none;rounded=0;jumpSize=6;orthogonalLoop=1;jettySize=auto;html=1;strokeWidth=2;exitX=0.5;exitY=1;exitDx=0;exitDy=0;entryX=0.75;entryY=0;entryDx=0;entryDy=0;" parent="1" source="_RsEXBhHLz2z6lFNZUiC-164" target="_RsEXBhHLz2z6lFNZUiC-138" edge="1"><mxGeometry relative="1" as="geometry"/></mxCell><mxCell id="_RsEXBhHLz2z6lFNZUiC-163" style="edgeStyle=none;rounded=0;jumpSize=6;orthogonalLoop=1;jettySize=auto;html=1;strokeWidth=2;exitX=0.5;exitY=1;exitDx=0;exitDy=0;entryX=0.25;entryY=0;entryDx=0;entryDy=0;" parent="1" source="_RsEXBhHLz2z6lFNZUiC-164" target="_RsEXBhHLz2z6lFNZUiC-137" edge="1"><mxGeometry relative="1" as="geometry"/></mxCell><mxCell id="_RsEXBhHLz2z6lFNZUiC-164" value="IN" style="rounded=1;whiteSpace=wrap;html=1;" parent="1" vertex="1"><mxGeometry x="950" y="1450" width="40" height="40" as="geometry"/></mxCell><mxCell id="_RsEXBhHLz2z6lFNZUiC-165" value="" style="endArrow=none;dashed=1;html=1;rounded=0;edgeStyle=orthogonalEdgeStyle;jumpSize=6;strokeWidth=2;" parent="1" edge="1"><mxGeometry width="50" height="50" relative="1" as="geometry"><mxPoint x="1010" y="1470" as="sourcePoint"/><mxPoint x="1030" y="1470" as="targetPoint"/></mxGeometry></mxCell><mxCell id="_RsEXBhHLz2z6lFNZUiC-166" style="edgeStyle=none;rounded=0;jumpSize=6;orthogonalLoop=1;jettySize=auto;html=1;entryX=0.5;entryY=0;entryDx=0;entryDy=0;strokeWidth=1;dashed=1;endArrow=none;endFill=0;" parent="1" source="_RsEXBhHLz2z6lFNZUiC-167" target="_RsEXBhHLz2z6lFNZUiC-169" edge="1"><mxGeometry relative="1" as="geometry"/></mxCell><mxCell id="_RsEXBhHLz2z6lFNZUiC-167" value="&lt;b&gt;NetworkReceiver&lt;br&gt;&lt;/b&gt;(maintains one TCP connection per client)" style="rounded=1;whiteSpace=wrap;html=1;" parent="1" vertex="1"><mxGeometry x="130" y="1330" width="120" height="60" as="geometry"/></mxCell><mxCell id="_RsEXBhHLz2z6lFNZUiC-168" style="edgeStyle=none;rounded=0;jumpSize=6;orthogonalLoop=1;jettySize=auto;html=1;entryX=0.5;entryY=0;entryDx=0;entryDy=0;strokeWidth=2;" parent="1" source="_RsEXBhHLz2z6lFNZUiC-169" target="_RsEXBhHLz2z6lFNZUiC-142" edge="1"><mxGeometry relative="1" as="geometry"/></mxCell><mxCell id="_RsEXBhHLz2z6lFNZUiC-169" value="IN" style="rounded=1;whiteSpace=wrap;html=1;" parent="1" vertex="1"><mxGeometry x="170" y="1450" width="40" height="40" as="geometry"/></mxCell><mxCell id="_RsEXBhHLz2z6lFNZUiC-170" style="edgeStyle=none;rounded=0;jumpSize=6;orthogonalLoop=1;jettySize=auto;html=1;entryX=0.5;entryY=0;entryDx=0;entryDy=0;dashed=1;endArrow=none;endFill=0;strokeWidth=2;" parent="1" source="_RsEXBhHLz2z6lFNZUiC-171" target="_RsEXBhHLz2z6lFNZUiC-176" edge="1"><mxGeometry relative="1" as="geometry"/></mxCell><mxCell id="_RsEXBhHLz2z6lFNZUiC-171" value="&lt;b&gt;PrimaryConnector&lt;br&gt;&lt;/b&gt;(sends batch digests to our primary)" style="rounded=1;whiteSpace=wrap;html=1;" parent="1" vertex="1"><mxGeometry x="850" y="1790" width="120" height="60" as="geometry"/></mxCell><mxCell id="_RsEXBhHLz2z6lFNZUiC-172" value="OUT" style="rounded=1;whiteSpace=wrap;html=1;" parent="1" vertex="1"><mxGeometry x="970" y="1670" width="40" height="40" as="geometry"/></mxCell><mxCell id="_RsEXBhHLz2z6lFNZUiC-173" value="OUT" style="rounded=1;whiteSpace=wrap;html=1;" parent="1" vertex="1"><mxGeometry x="1130" y="1670" width="40" height="40" as="geometry"/></mxCell><mxCell id="_RsEXBhHLz2z6lFNZUiC-174" value="OUT" style="rounded=1;whiteSpace=wrap;html=1;" parent="1" vertex="1"><mxGeometry x="1030" y="1670" width="40" height="40" as="geometry"/></mxCell><mxCell id="_RsEXBhHLz2z6lFNZUiC-175" value="" style="endArrow=none;dashed=1;html=1;rounded=0;edgeStyle=orthogonalEdgeStyle;jumpSize=6;strokeWidth=2;" parent="1" edge="1"><mxGeometry width="50" height="50" relative="1" as="geometry"><mxPoint x="1090" y="1690" as="sourcePoint"/><mxPoint x="1110" y="1690" as="targetPoint"/></mxGeometry></mxCell><mxCell id="_RsEXBhHLz2z6lFNZUiC-176" value="OUT" style="rounded=1;whiteSpace=wrap;html=1;" parent="1" vertex="1"><mxGeometry x="890" y="1910" width="40" height="40" as="geometry"/></mxCell><mxCell id="_RsEXBhHLz2z6lFNZUiC-177" value="OUT" style="rounded=1;whiteSpace=wrap;html=1;" parent="1" vertex="1"><mxGeometry x="370" y="1670" width="40" height="40" as="geometry"/></mxCell><mxCell id="_RsEXBhHLz2z6lFNZUiC-178" value="OUT" style="rounded=1;whiteSpace=wrap;html=1;" parent="1" vertex="1"><mxGeometry x="530" y="1670" width="40" height="40" as="geometry"/></mxCell><mxCell id="_RsEXBhHLz2z6lFNZUiC-179" value="OUT" style="rounded=1;whiteSpace=wrap;html=1;" parent="1" vertex="1"><mxGeometry x="430" y="1670" width="40" height="40" as="geometry"/></mxCell><mxCell id="_RsEXBhHLz2z6lFNZUiC-180" value="" style="endArrow=none;dashed=1;html=1;rounded=0;edgeStyle=orthogonalEdgeStyle;jumpSize=6;strokeWidth=2;" parent="1" edge="1"><mxGeometry width="50" height="50" relative="1" as="geometry"><mxPoint x="490" y="1690" as="sourcePoint"/><mxPoint x="510" y="1690" as="targetPoint"/></mxGeometry></mxCell><mxCell id="_RsEXBhHLz2z6lFNZUiC-181" value="OUT" style="rounded=1;whiteSpace=wrap;html=1;" parent="1" vertex="1"><mxGeometry x="90" y="1670" width="40" height="40" as="geometry"/></mxCell><mxCell id="_RsEXBhHLz2z6lFNZUiC-182" value="OUT" style="rounded=1;whiteSpace=wrap;html=1;" parent="1" vertex="1"><mxGeometry x="250" y="1670" width="40" height="40" as="geometry"/></mxCell><mxCell id="_RsEXBhHLz2z6lFNZUiC-183" value="OUT" style="rounded=1;whiteSpace=wrap;html=1;" parent="1" vertex="1"><mxGeometry x="150" y="1670" width="40" height="40" as="geometry"/></mxCell><mxCell id="_RsEXBhHLz2z6lFNZUiC-184" value="" style="endArrow=none;dashed=1;html=1;rounded=0;edgeStyle=orthogonalEdgeStyle;jumpSize=6;strokeWidth=2;" parent="1" edge="1"><mxGeometry width="50" height="50" relative="1" as="geometry"><mxPoint x="209.99999999999955" y="1690" as="sourcePoint"/><mxPoint x="229.99999999999955" y="1690" as="targetPoint"/></mxGeometry></mxCell><mxCell id="_RsEXBhHLz2z6lFNZUiC-185" style="edgeStyle=none;rounded=0;jumpSize=6;orthogonalLoop=1;jettySize=auto;html=1;strokeWidth=2;exitX=0.5;exitY=1;exitDx=0;exitDy=0;" parent="1" source="_RsEXBhHLz2z6lFNZUiC-138" target="_RsEXBhHLz2z6lFNZUiC-171" edge="1"><mxGeometry relative="1" as="geometry"><mxPoint x="970" y="1759.9999999999998" as="sourcePoint"/><mxPoint x="1050" y="1819.9999999999998" as="targetPoint"/></mxGeometry></mxCell><mxCell id="_RsEXBhHLz2z6lFNZUiC-186" value="&lt;font style=&quot;&quot;&gt;&lt;span style=&quot;font-size: 16px;&quot;&gt;&lt;b&gt;PrimaryReceiverHandler&lt;/b&gt;&lt;/span&gt;&lt;br&gt;&lt;font style=&quot;font-size: 12px;&quot;&gt;Handle messages from our primary&lt;/font&gt;&lt;/font&gt;" style="text;html=1;strokeColor=none;fillColor=none;align=center;verticalAlign=middle;whiteSpace=wrap;rounded=0;dashed=1;" parent="1" vertex="1"><mxGeometry x="90" y="1280" width="213" height="40" as="geometry"/></mxCell><mxCell id="_RsEXBhHLz2z6lFNZUiC-187" value="&lt;font style=&quot;&quot;&gt;&lt;span style=&quot;font-size: 16px;&quot;&gt;&lt;b&gt;TxReceiverHandler&lt;/b&gt;&lt;/span&gt;&lt;br&gt;&lt;font style=&quot;font-size: 12px;&quot;&gt;Handle clients transactions&lt;/font&gt;&lt;/font&gt;" style="text;html=1;strokeColor=none;fillColor=none;align=center;verticalAlign=middle;whiteSpace=wrap;rounded=0;dashed=1;" parent="1" vertex="1"><mxGeometry x="513" y="1283" width="160" height="40" as="geometry"/></mxCell><mxCell id="_RsEXBhHLz2z6lFNZUiC-188" value="&lt;font style=&quot;&quot;&gt;&lt;span style=&quot;font-size: 16px;&quot;&gt;&lt;b&gt;WorkerReceiverHandler&lt;/b&gt;&lt;/span&gt;&lt;br&gt;&lt;font style=&quot;font-size: 12px;&quot;&gt;Handle messages from other workers&lt;/font&gt;&lt;/font&gt;" style="text;html=1;strokeColor=none;fillColor=none;align=center;verticalAlign=middle;whiteSpace=wrap;rounded=0;dashed=1;" parent="1" vertex="1"><mxGeometry x="895" y="1283" width="209" height="40" as="geometry"/></mxCell><mxCell id="_RsEXBhHLz2z6lFNZUiC-189" value="" style="rounded=0;whiteSpace=wrap;html=1;strokeColor=#000000;fillColor=#000000;align=center;" parent="1" vertex="1"><mxGeometry x="582" y="1795" width="10" height="10" as="geometry"/></mxCell><mxCell id="_RsEXBhHLz2z6lFNZUiC-190" value="" style="rounded=0;whiteSpace=wrap;html=1;strokeColor=#000000;fillColor=#000000;align=center;" parent="1" vertex="1"><mxGeometry x="856" y="1556" width="10" height="10" as="geometry"/></mxCell><mxCell id="_RsEXBhHLz2z6lFNZUiC-191" value="" style="rounded=0;whiteSpace=wrap;html=1;strokeColor=#000000;fillColor=#000000;align=center;" parent="1" vertex="1"><mxGeometry x="537" y="1556" width="10" height="10" as="geometry"/></mxCell><mxCell id="_RsEXBhHLz2z6lFNZUiC-192" value="" style="ellipse;whiteSpace=wrap;html=1;aspect=fixed;align=center;fillColor=#000000;" parent="1" vertex="1"><mxGeometry x="582" y="1811" width="10" height="10" as="geometry"/></mxCell><mxCell id="_RsEXBhHLz2z6lFNZUiC-193" value="" style="ellipse;whiteSpace=wrap;html=1;aspect=fixed;align=center;fillColor=#000000;" parent="1" vertex="1"><mxGeometry x="844" y="1556" width="10" height="10" as="geometry"/></mxCell><mxCell id="_RsEXBhHLz2z6lFNZUiC-194" value="" style="ellipse;whiteSpace=wrap;html=1;aspect=fixed;align=center;fillColor=#000000;" parent="1" vertex="1"><mxGeometry x="1020" y="1556" width="10" height="10" as="geometry"/></mxCell><mxCell id="_RsEXBhHLz2z6lFNZUiC-195" value="" style="ellipse;whiteSpace=wrap;html=1;aspect=fixed;align=center;fillColor=#000000;" parent="1" vertex="1"><mxGeometry x="135" y="1556" width="10" height="10" as="geometry"/></mxCell><mxCell id="_RsEXBhHLz2z6lFNZUiC-196" value="" style="rhombus;whiteSpace=wrap;html=1;strokeColor=#000000;fillColor=#000000;align=center;" parent="1" vertex="1"><mxGeometry x="470" y="1450" width="10" height="10" as="geometry"/></mxCell><mxCell id="_RsEXBhHLz2z6lFNZUiC-197" value="" style="rhombus;whiteSpace=wrap;html=1;strokeColor=#000000;fillColor=#000000;align=center;" parent="1" vertex="1"><mxGeometry x="172" y="1453" width="10" height="10" as="geometry"/></mxCell><mxCell id="_RsEXBhHLz2z6lFNZUiC-198" value="" style="rhombus;whiteSpace=wrap;html=1;strokeColor=#000000;fillColor=#000000;align=center;" parent="1" vertex="1"><mxGeometry x="870" y="1450" width="10" height="10" as="geometry"/></mxCell><mxCell id="_RsEXBhHLz2z6lFNZUiC-199" value="" style="rhombus;whiteSpace=wrap;html=1;strokeColor=#000000;fillColor=#000000;align=center;" parent="1" vertex="1"><mxGeometry x="854" y="1897" width="10" height="10" as="geometry"/></mxCell><mxCell id="_RsEXBhHLz2z6lFNZUiC-200" value="" style="rhombus;whiteSpace=wrap;html=1;strokeColor=#000000;fillColor=#000000;align=center;" parent="1" vertex="1"><mxGeometry x="958" y="1734" width="10" height="10" as="geometry"/></mxCell><mxCell id="_RsEXBhHLz2z6lFNZUiC-201" value="" style="rhombus;whiteSpace=wrap;html=1;strokeColor=#000000;fillColor=#000000;align=center;" parent="1" vertex="1"><mxGeometry x="360" y="1734" width="10" height="10" as="geometry"/></mxCell><mxCell id="_RsEXBhHLz2z6lFNZUiC-202" value="" style="rhombus;whiteSpace=wrap;html=1;strokeColor=#000000;fillColor=#000000;align=center;" parent="1" vertex="1"><mxGeometry x="75" y="1730" width="10" height="10" as="geometry"/></mxCell><mxCell id="_RsEXBhHLz2z6lFNZUiC-220" value="&lt;font style=&quot;font-size: 24px;&quot;&gt;&lt;b style=&quot;font-size: 24px;&quot;&gt;WORKER NODE ARCHITECTURE&lt;/b&gt;&lt;/font&gt;" style="text;html=1;strokeColor=none;fillColor=none;align=center;verticalAlign=middle;whiteSpace=wrap;rounded=0;dashed=1;fontSize=24;" parent="1" vertex="1"><mxGeometry x="400" y="1197" width="460" height="40" as="geometry"/></mxCell><mxCell id="_RsEXBhHLz2z6lFNZUiC-227" style="edgeStyle=none;rounded=0;jumpSize=6;orthogonalLoop=1;jettySize=auto;html=1;startArrow=none;startFill=0;endArrow=classic;endFill=1;strokeWidth=2;exitX=0;exitY=0.5;exitDx=0;exitDy=0;entryX=1;entryY=0.5;entryDx=0;entryDy=0;" parent="1" source="_RsEXBhHLz2z6lFNZUiC-54" target="_RsEXBhHLz2z6lFNZUiC-233" edge="1"><mxGeometry relative="1" as="geometry"><mxPoint x="670" y="770" as="sourcePoint"/><mxPoint x="520" y="770" as="targetPoint"/><Array as="points"/></mxGeometry></mxCell><mxCell id="_RsEXBhHLz2z6lFNZUiC-230" value="&lt;b&gt;NetworkReceiver&lt;br&gt;&lt;/b&gt;(Handle messages from workers)" style="rounded=1;whiteSpace=wrap;html=1;" parent="1" vertex="1"><mxGeometry x="199.5" y="510" width="165" height="60" as="geometry"/></mxCell><mxCell id="_RsEXBhHLz2z6lFNZUiC-233" value="&lt;b&gt;BatchLoader&lt;br&gt;&lt;/b&gt;(&lt;span style=&quot;background-color: initial;&quot;&gt;downloads the batches of all certificates referenced by sequenced&amp;nbsp;&lt;/span&gt;&lt;span style=&quot;background-color: initial;&quot;&gt;certificates into the local store.&lt;/span&gt;)" style="rounded=1;whiteSpace=wrap;html=1;" parent="1" vertex="1"><mxGeometry x="187" y="708" width="205" height="90" as="geometry"/></mxCell><mxCell id="_RsEXBhHLz2z6lFNZUiC-235" value="&lt;b&gt;ExecutorCore&lt;/b&gt;&lt;br&gt;(Executes batches of transactions)" style="rounded=1;whiteSpace=wrap;html=1;fillColor=#d5e8d4;strokeColor=#82b366;" parent="1" vertex="1"><mxGeometry x="207" y="848" width="165" height="60" as="geometry"/></mxCell><mxCell id="_RsEXBhHLz2z6lFNZUiC-236" style="edgeStyle=none;rounded=0;jumpSize=6;orthogonalLoop=1;jettySize=auto;html=1;startArrow=none;startFill=0;endArrow=classic;endFill=1;strokeWidth=2;entryX=0.5;entryY=0;entryDx=0;entryDy=0;" parent="1" source="_RsEXBhHLz2z6lFNZUiC-233" target="_RsEXBhHLz2z6lFNZUiC-235" edge="1"><mxGeometry relative="1" as="geometry"><mxPoint x="552" y="598" as="sourcePoint"/><mxPoint x="399.5" y="628" as="targetPoint"/><Array as="points"/></mxGeometry></mxCell><mxCell id="76TsOrNJ0Wjw5JiIFe_U-1" value="" style="rounded=0;whiteSpace=wrap;html=1;strokeColor=#000000;fillColor=#000000;align=center;" parent="1" vertex="1"><mxGeometry x="212" y="858" width="10" height="10" as="geometry"/></mxCell><mxCell id="76TsOrNJ0Wjw5JiIFe_U-5" value="" style="ellipse;whiteSpace=wrap;html=1;aspect=fixed;align=center;fillColor=#000000;" parent="1" vertex="1"><mxGeometry x="194.5" y="711.75" width="12.5" height="12.5" as="geometry"/></mxCell><mxCell id="_RsEXBhHLz2z6lFNZUiC-99" value="" style="group" parent="1" vertex="1" connectable="0"><mxGeometry x="90" y="985" width="480" height="160" as="geometry"/></mxCell><mxCell id="_RsEXBhHLz2z6lFNZUiC-1" value="" style="rounded=0;whiteSpace=wrap;html=1;strokeColor=#000000;align=left;fillColor=none;" parent="_RsEXBhHLz2z6lFNZUiC-99" vertex="1"><mxGeometry width="480" height="160" as="geometry"/></mxCell><mxCell id="_RsEXBhHLz2z6lFNZUiC-71" value="&lt;p style=&quot;line-height: 130%&quot;&gt;&lt;/p&gt;&lt;h1&gt;Legend&lt;br&gt;&lt;/h1&gt;&lt;p&gt;&lt;/p&gt;" style="text;html=1;strokeColor=none;fillColor=none;spacing=5;spacingTop=-20;whiteSpace=wrap;overflow=hidden;rounded=0;align=left;" parent="_RsEXBhHLz2z6lFNZUiC-99" vertex="1"><mxGeometry x="20" y="10" width="280" height="40" as="geometry"/></mxCell><mxCell id="_RsEXBhHLz2z6lFNZUiC-72" value="" style="ellipse;whiteSpace=wrap;html=1;aspect=fixed;align=center;fillColor=#000000;" parent="_RsEXBhHLz2z6lFNZUiC-99" vertex="1"><mxGeometry x="30" y="90" width="10" height="10" as="geometry"/></mxCell><mxCell id="_RsEXBhHLz2z6lFNZUiC-73" value="" style="rounded=0;whiteSpace=wrap;html=1;strokeColor=#000000;fillColor=#000000;align=center;" parent="_RsEXBhHLz2z6lFNZUiC-99" vertex="1"><mxGeometry x="30" y="65" width="10" height="10" as="geometry"/></mxCell><mxCell id="_RsEXBhHLz2z6lFNZUiC-74" value="" style="rhombus;whiteSpace=wrap;html=1;strokeColor=#000000;fillColor=#000000;align=center;" parent="_RsEXBhHLz2z6lFNZUiC-99" vertex="1"><mxGeometry x="30" y="114" width="10" height="10" as="geometry"/></mxCell><mxCell id="_RsEXBhHLz2z6lFNZUiC-75" value="" style="rounded=1;whiteSpace=wrap;html=1;strokeColor=#000000;align=center;fillColor=#FFFFFF;" parent="_RsEXBhHLz2z6lFNZUiC-99" vertex="1"><mxGeometry x="140" y="60" width="80" height="30" as="geometry"/></mxCell><mxCell id="_RsEXBhHLz2z6lFNZUiC-76" style="edgeStyle=none;rounded=0;jumpSize=6;orthogonalLoop=1;jettySize=auto;html=1;strokeWidth=2;" parent="_RsEXBhHLz2z6lFNZUiC-99" edge="1"><mxGeometry relative="1" as="geometry"><mxPoint x="140" y="118.50000000000045" as="sourcePoint"/><mxPoint x="220" y="119" as="targetPoint"/></mxGeometry></mxCell><mxCell id="_RsEXBhHLz2z6lFNZUiC-77" value="tokio task" style="text;html=1;strokeColor=none;fillColor=none;align=left;verticalAlign=middle;whiteSpace=wrap;rounded=0;" parent="_RsEXBhHLz2z6lFNZUiC-99" vertex="1"><mxGeometry x="230" y="65" width="80" height="20" as="geometry"/></mxCell><mxCell id="_RsEXBhHLz2z6lFNZUiC-78" value="tokio channel" style="text;html=1;strokeColor=none;fillColor=none;align=left;verticalAlign=middle;whiteSpace=wrap;rounded=0;" parent="_RsEXBhHLz2z6lFNZUiC-99" vertex="1"><mxGeometry x="230" y="109" width="80" height="20" as="geometry"/></mxCell><mxCell id="_RsEXBhHLz2z6lFNZUiC-79" value="Network" style="text;html=1;strokeColor=none;fillColor=none;align=left;verticalAlign=middle;whiteSpace=wrap;rounded=0;" parent="_RsEXBhHLz2z6lFNZUiC-99" vertex="1"><mxGeometry x="50" y="109" width="100" height="20" as="geometry"/></mxCell><mxCell id="_RsEXBhHLz2z6lFNZUiC-80" value="Storage" style="text;html=1;strokeColor=none;fillColor=none;align=left;verticalAlign=middle;whiteSpace=wrap;rounded=0;" parent="_RsEXBhHLz2z6lFNZUiC-99" vertex="1"><mxGeometry x="50" y="85" width="100" height="20" as="geometry"/></mxCell><mxCell id="_RsEXBhHLz2z6lFNZUiC-81" value="CPU" style="text;html=1;strokeColor=none;fillColor=none;align=left;verticalAlign=middle;whiteSpace=wrap;rounded=0;" parent="_RsEXBhHLz2z6lFNZUiC-99" vertex="1"><mxGeometry x="50" y="60" width="100" height="20" as="geometry"/></mxCell><mxCell id="_RsEXBhHLz2z6lFNZUiC-85" value="&lt;b&gt;W&lt;/b&gt;" style="ellipse;shape=cloud;whiteSpace=wrap;html=1;strokeColor=#000000;fillColor=none;align=center;" parent="_RsEXBhHLz2z6lFNZUiC-99" vertex="1"><mxGeometry x="340" y="60" width="30" height="30" as="geometry"/></mxCell><mxCell id="_RsEXBhHLz2z6lFNZUiC-86" value="&lt;b&gt;R&lt;/b&gt;" style="ellipse;shape=cloud;whiteSpace=wrap;html=1;strokeColor=#000000;fillColor=none;align=center;" parent="_RsEXBhHLz2z6lFNZUiC-99" vertex="1"><mxGeometry x="340" y="105" width="30" height="30" as="geometry"/></mxCell><mxCell id="_RsEXBhHLz2z6lFNZUiC-87" value="atomic reader" style="text;html=1;strokeColor=none;fillColor=none;align=left;verticalAlign=middle;whiteSpace=wrap;rounded=0;" parent="_RsEXBhHLz2z6lFNZUiC-99" vertex="1"><mxGeometry x="380" y="109" width="80" height="20" as="geometry"/></mxCell><mxCell id="_RsEXBhHLz2z6lFNZUiC-88" value="atomic writer" style="text;html=1;strokeColor=none;fillColor=none;align=left;verticalAlign=middle;whiteSpace=wrap;rounded=0;" parent="_RsEXBhHLz2z6lFNZUiC-99" vertex="1"><mxGeometry x="380" y="65" width="80" height="20" as="geometry"/></mxCell><mxCell id="_RsEXBhHLz2z6lFNZUiC-117" value="&lt;font style=&quot;font-size: 24px;&quot;&gt;&lt;b style=&quot;font-size: 24px;&quot;&gt;PRIMARY NODE ARCHITECTURE&lt;/b&gt;&lt;/font&gt;" style="text;html=1;strokeColor=none;fillColor=none;align=center;verticalAlign=middle;whiteSpace=wrap;rounded=0;dashed=1;fontSize=24;" parent="1" vertex="1"><mxGeometry x="505" y="-284" width="460" height="40" as="geometry"/></mxCell><mxCell id="8bhIn0kUpYS2D9xrAJyL-7" value="&lt;font style=&quot;&quot;&gt;&lt;span style=&quot;font-size: 16px;&quot;&gt;&lt;b&gt;ExecutorReceiverHandler&lt;/b&gt;&lt;/span&gt;&lt;br&gt;Handle messages from our workers&lt;br&gt;&lt;/font&gt;" style="text;html=1;strokeColor=none;fillColor=none;align=center;verticalAlign=middle;whiteSpace=wrap;rounded=0;dashed=1;" parent="1" vertex="1"><mxGeometry x="172" y="465" width="223.5" height="40" as="geometry"/></mxCell><mxCell id="8bhIn0kUpYS2D9xrAJyL-9" value="IN" style="rounded=1;whiteSpace=wrap;html=1;" parent="1" vertex="1"><mxGeometry x="192" y="610" width="40" height="40" as="geometry"/></mxCell><mxCell id="8bhIn0kUpYS2D9xrAJyL-10" value="IN" style="rounded=1;whiteSpace=wrap;html=1;" parent="1" vertex="1"><mxGeometry x="352" y="610" width="40" height="40" as="geometry"/></mxCell><mxCell id="8bhIn0kUpYS2D9xrAJyL-11" value="IN" style="rounded=1;whiteSpace=wrap;html=1;" parent="1" vertex="1"><mxGeometry x="252" y="610" width="40" height="40" as="geometry"/></mxCell><mxCell id="8bhIn0kUpYS2D9xrAJyL-12" value="" style="endArrow=none;dashed=1;html=1;rounded=0;edgeStyle=orthogonalEdgeStyle;jumpSize=6;strokeWidth=2;" parent="1" edge="1"><mxGeometry width="50" height="50" relative="1" as="geometry"><mxPoint x="312" y="629.9999999999998" as="sourcePoint"/><mxPoint x="332" y="629.9999999999998" as="targetPoint"/></mxGeometry></mxCell><mxCell id="8bhIn0kUpYS2D9xrAJyL-13" value="" style="rhombus;whiteSpace=wrap;html=1;strokeColor=#000000;fillColor=#000000;align=center;" parent="1" vertex="1"><mxGeometry x="172" y="610" width="10" height="10" as="geometry"/></mxCell><mxCell id="8bhIn0kUpYS2D9xrAJyL-14" style="edgeStyle=none;rounded=0;jumpSize=6;orthogonalLoop=1;jettySize=auto;html=1;entryX=0.5;entryY=0;entryDx=0;entryDy=0;strokeWidth=1;endArrow=none;endFill=0;dashed=1;exitX=0.25;exitY=1;exitDx=0;exitDy=0;" parent="1" source="_RsEXBhHLz2z6lFNZUiC-230" target="8bhIn0kUpYS2D9xrAJyL-9" edge="1"><mxGeometry relative="1" as="geometry"><mxPoint x="182.00333333333322" y="525" as="sourcePoint"/><mxPoint x="128.67" y="585" as="targetPoint"/></mxGeometry></mxCell><mxCell id="8bhIn0kUpYS2D9xrAJyL-15" style="edgeStyle=none;rounded=0;jumpSize=6;orthogonalLoop=1;jettySize=auto;html=1;entryX=0.5;entryY=0;entryDx=0;entryDy=0;strokeWidth=1;endArrow=none;endFill=0;dashed=1;exitX=0.5;exitY=1;exitDx=0;exitDy=0;" parent="1" source="_RsEXBhHLz2z6lFNZUiC-230" target="8bhIn0kUpYS2D9xrAJyL-11" edge="1"><mxGeometry relative="1" as="geometry"><mxPoint x="250.75" y="580" as="sourcePoint"/><mxPoint x="222" y="620" as="targetPoint"/></mxGeometry></mxCell><mxCell id="8bhIn0kUpYS2D9xrAJyL-16" style="edgeStyle=none;rounded=0;jumpSize=6;orthogonalLoop=1;jettySize=auto;html=1;entryX=0.5;entryY=0;entryDx=0;entryDy=0;strokeWidth=1;endArrow=none;endFill=0;dashed=1;exitX=0.75;exitY=1;exitDx=0;exitDy=0;" parent="1" source="_RsEXBhHLz2z6lFNZUiC-230" target="8bhIn0kUpYS2D9xrAJyL-10" edge="1"><mxGeometry relative="1" as="geometry"><mxPoint x="292" y="580" as="sourcePoint"/><mxPoint x="282" y="620" as="targetPoint"/></mxGeometry></mxCell><mxCell id="8bhIn0kUpYS2D9xrAJyL-22" style="edgeStyle=none;rounded=0;jumpSize=6;orthogonalLoop=1;jettySize=auto;html=1;startArrow=none;startFill=0;endArrow=classic;endFill=1;strokeWidth=2;entryX=0.5;entryY=0;entryDx=0;entryDy=0;exitX=0.5;exitY=1;exitDx=0;exitDy=0;" parent="1" source="8bhIn0kUpYS2D9xrAJyL-9" target="_RsEXBhHLz2z6lFNZUiC-233" edge="1"><mxGeometry relative="1" as="geometry"><mxPoint x="212" y="641.75" as="sourcePoint"/><mxPoint x="292" y="711.75" as="targetPoint"/></mxGeometry></mxCell><mxCell id="8bhIn0kUpYS2D9xrAJyL-23" style="edgeStyle=none;rounded=0;jumpSize=6;orthogonalLoop=1;jettySize=auto;html=1;startArrow=none;startFill=0;endArrow=classic;endFill=1;strokeWidth=2;entryX=0.5;entryY=0;entryDx=0;entryDy=0;exitX=0.5;exitY=1;exitDx=0;exitDy=0;" parent="1" source="8bhIn0kUpYS2D9xrAJyL-11" target="_RsEXBhHLz2z6lFNZUiC-233" edge="1"><mxGeometry relative="1" as="geometry"><mxPoint x="222" y="660" as="sourcePoint"/><mxPoint x="299.5" y="718" as="targetPoint"/></mxGeometry></mxCell><mxCell id="8bhIn0kUpYS2D9xrAJyL-24" style="edgeStyle=none;rounded=0;jumpSize=6;orthogonalLoop=1;jettySize=auto;html=1;startArrow=none;startFill=0;endArrow=classic;endFill=1;strokeWidth=2;entryX=0.5;entryY=0;entryDx=0;entryDy=0;exitX=0.5;exitY=1;exitDx=0;exitDy=0;" parent="1" source="8bhIn0kUpYS2D9xrAJyL-10" target="_RsEXBhHLz2z6lFNZUiC-233" edge="1"><mxGeometry relative="1" as="geometry"><mxPoint x="282" y="660" as="sourcePoint"/><mxPoint x="299.5" y="718" as="targetPoint"/></mxGeometry></mxCell><mxCell id="8bhIn0kUpYS2D9xrAJyL-28" value="" style="rhombus;whiteSpace=wrap;html=1;strokeColor=#000000;fillColor=#000000;align=center;strokeWidth=1;rotation=-5;" parent="1" vertex="1"><mxGeometry x="495" y="600" width="10" height="10" as="geometry"/></mxCell><mxCell id="13" style="edgeStyle=orthogonalEdgeStyle;rounded=0;orthogonalLoop=1;jettySize=auto;html=1;strokeWidth=2;" parent="1" source="9" target="_RsEXBhHLz2z6lFNZUiC-46" edge="1"><mxGeometry relative="1" as="geometry"><Array as="points"><mxPoint x="1215" y="670"/><mxPoint x="1032" y="670"/></Array></mxGeometry></mxCell><mxCell id="9" value="&lt;b&gt;Synchronizer&lt;br&gt;&lt;/b&gt;&lt;div&gt;Checks if we have all batches and parents referenced by a header. If we don't, it sends&lt;/div&gt;&lt;div&gt;a command to Header Waiter to request the missing data.&lt;/div&gt;" style="rounded=1;whiteSpace=wrap;html=1;" parent="1" vertex="1"><mxGeometry x="1120" y="702" width="190" height="96" as="geometry"/></mxCell><mxCell id="18" value="TCP" style="edgeStyle=orthogonalEdgeStyle;rounded=0;orthogonalLoop=1;jettySize=auto;html=1;strokeWidth=2;" parent="1" source="14" target="15" edge="1"><mxGeometry relative="1" as="geometry"><Array as="points"><mxPoint x="1351" y="-117"/><mxPoint x="1351" y="-117"/></Array></mxGeometry></mxCell><mxCell id="14" value="&lt;b&gt;Primary Node&lt;/b&gt;" style="rounded=1;whiteSpace=wrap;html=1;" parent="1" vertex="1"><mxGeometry x="1258.5" y="-198" width="184" height="60" as="geometry"/></mxCell><mxCell id="17" value="" style="group" parent="1" vertex="1" connectable="0"><mxGeometry x="1248" y="-60" width="205" height="109" as="geometry"/></mxCell><mxCell id="_RsEXBhHLz2z6lFNZUiC-20" value="&lt;span style=&quot;font-size: 16px;&quot;&gt;&lt;b&gt;PrimaryReceiverHandler&lt;/b&gt;&lt;/span&gt;&lt;br&gt;Handle messages from other primaries" style="rounded=1;whiteSpace=wrap;html=1;" parent="17" vertex="1"><mxGeometry y="27" width="205" height="82" as="geometry"/></mxCell><mxCell id="15" value="&lt;b&gt;NetworkReceiver&lt;/b&gt;" style="rounded=1;whiteSpace=wrap;html=1;" parent="17" vertex="1"><mxGeometry x="10.5" width="184" height="27" as="geometry"/></mxCell></root></mxGraphModel></diagram></mxfile>